<svg width="112" height="60" viewBox="0 0 112 60" fill="none" xmlns="http://www.w3.org/2000/svg">
<path d="M30.8449 30.8477C30.7365 31.0513 30.5767 31.2231 30.3813 31.3458C30.1859 31.4685 29.9618 31.5379 29.7313 31.5471C28.9542 31.5587 27.6898 30.5726 27.4691 30.3993C27.2484 30.226 25.3467 28.2303 23.885 27.6273C23.0982 27.2917 22.2451 27.1402 21.3908 27.1844C20.5366 27.2286 19.7037 27.4672 18.9557 27.8822C18.9557 27.8822 15.5496 29.5918 13.5392 35.6223C11.5288 41.6527 11.4978 46.54 13.6628 48.3033C15.8279 50.0665 18.3644 48.705 20.0655 47.9924C21.7666 47.2798 24.6116 45.5834 25.5706 45.487C26.5296 45.3906 27.1481 45.6424 26.8077 47.3117C25.9103 50.424 24.7622 53.4585 23.3744 56.3853C21.8861 57.5021 20.2139 58.35 18.4335 58.8907C15.9058 59.628 13.2329 59.7157 10.6623 59.1456C8.34263 58.6583 5.71366 57.0963 3.3318 54.5295C0.949932 51.9627 -0.476058 46.6931 0.145635 40.4458C0.767329 34.1986 4.4446 27.2395 8.65114 23.0019C12.8577 18.7643 16.6306 17.3421 20.3421 17.1875C22.4897 17.1958 24.6068 17.6955 26.5314 18.6484C28.456 19.6013 30.137 20.982 31.4456 22.6848C31.5627 22.8622 31.6489 23.0583 31.7005 23.2646C31.7005 23.2646 31.9585 29.417 30.8449 30.8477Z" fill="white"/>
<path d="M49.7495 18.3354L39.3361 59.4822H32.8643C32.8643 59.4822 29.8716 59.598 29.0564 58.531C28.2412 57.4641 28.4068 56.4896 28.894 54.1699C29.3813 51.8502 36.2471 24.5291 36.2471 24.5291C36.2471 24.5291 37.1983 20.7212 38.1029 19.7506C39.0074 18.78 40.1443 18.3354 42.2083 18.3354H49.7495Z" fill="white"/>
<path d="M47.872 0.00329473C47.872 0.00329473 51.1895 -0.135809 52.9061 1.69663C53.5361 2.3546 53.9212 3.20881 53.9972 4.11657C54.0731 5.02433 53.8353 5.93066 53.3234 6.68417C52.6504 7.70452 50.8646 10.5348 45.344 10.5348C39.8233 10.5348 39.7534 6.96005 39.7534 6.35934C39.8176 5.03911 40.3718 3.79027 41.3077 2.85687C42.1258 1.92917 43.1378 1.19268 44.2722 0.699554C45.4066 0.206431 46.6355 -0.0312661 47.872 0.00329473V0.00329473Z" fill="white"/>
<path d="M57.6372 18.3364H52.3715L50.1451 27.3137H55.4108L47.1733 59.4863H55.5266C55.5266 59.4863 59.1013 59.6215 60.3517 54.8896C61.6021 50.1578 67.3108 27.3362 67.3108 27.3362H72.0426C72.6886 27.3507 73.3299 27.224 73.9217 26.9647C74.3071 26.7608 74.6373 26.4664 74.8837 26.1067C75.1302 25.7471 75.2857 25.3329 75.3369 24.8999C75.7309 23.3457 76.5196 20.3072 76.5196 20.3072C76.5898 20.0738 76.6011 19.8267 76.5525 19.5879C76.504 19.3492 76.3971 19.1261 76.2414 18.9387C75.7491 18.5254 75.1205 18.3104 74.4782 18.3356H69.8155L73.6233 3.74525C73.8548 2.99386 73.7969 2.18302 73.4609 1.47218C72.8781 0.520992 71.8336 0.0795898 70.0478 0.0795898C68.2625 0.200939 66.5122 0.632752 64.8753 1.35562C63.587 1.85232 62.4397 2.65671 61.5337 3.69862L57.6372 18.3364Z" fill="white"/>
<path d="M66.0571 47.5489V54.6121C66.609 54.5812 67.1404 54.3924 67.588 54.0681C68.6395 53.4651 74.3769 48.8296 75.1968 48.4434C76.0166 48.0571 78.0426 46.928 79.774 48.7542C81.5054 50.5804 83.271 53.2195 84.2276 54.2865C85.1843 55.3535 85.3257 55.4304 85.8977 56.0801C87.0544 57.3713 88.5559 58.3053 90.2254 58.772C94.2022 59.8008 98.3917 59.6559 102.288 58.3547C107.7 56.638 109.216 55.8493 110.731 53.8086C112.247 51.7679 111.706 48.1216 111.412 47.6274C111.239 47.3419 111.118 47.0276 111.056 46.6995C110.479 46.7436 109.917 46.9021 109.402 47.1658C108.566 47.5986 107.407 48.1247 106.401 48.6353C104.772 49.2641 103.104 49.7859 101.407 50.1973C100.469 50.3275 99.5164 50.2909 98.5919 50.0893C97.9144 49.7724 97.329 49.288 96.8908 48.6819C96.2072 47.6407 95.5924 46.5559 95.0506 45.4343C94.4464 44.2199 93.9896 42.9377 93.6898 41.6148C93.52 40.3447 93.0128 39.1433 92.2211 38.1357C90.8228 37.2575 89.3078 36.5808 87.7208 36.1253C86.4574 35.6633 85.0714 35.6633 83.808 36.1253C83.3417 36.3584 82.03 36.883 81.287 37.3158C80.5441 37.7487 75.9824 40.5634 73.3379 42.3111C70.6934 44.0589 68.2346 45.7133 67.4613 46.3164C66.9341 46.6545 66.4608 47.07 66.0571 47.5489V47.5489Z" fill="white"/>
<path d="M92.5713 15.506C92.5713 15.506 88.1176 17.037 85.7746 18.8477C83.4316 20.6583 83.2692 20.7733 83.0376 22.5358C82.806 24.2983 83.409 26.3865 85.5896 26.9895C87.682 27.4409 89.8439 27.4647 91.9457 27.0594C94.1568 26.5721 96.2574 25.676 98.1393 24.4173C99.1017 23.5276 99.8885 22.4653 100.459 21.2855C100.668 20.9839 100.911 20.0561 101.387 19.0932C101.959 18.211 102.313 17.205 102.419 16.1588C102.407 15.0918 102.186 13.8624 99.5544 13.8741C97.1497 14.0089 94.7867 14.5611 92.5713 15.506V15.506Z" fill="white"/>
</svg>
