<svg width="32" height="32" viewBox="0 0 32 32" fill="none" xmlns="http://www.w3.org/2000/svg">
<path d="M21.7981 13.8H18.7981C18.5329 13.8 18.2786 13.6947 18.091 13.5072C17.9035 13.3196 17.7981 13.0653 17.7981 12.8C17.7981 12.5348 17.9035 12.2805 18.091 12.0929C18.2786 11.9054 18.5329 11.8 18.7981 11.8H21.7981C22.0634 11.8 22.3177 11.9054 22.5052 12.0929C22.6928 12.2805 22.7981 12.5348 22.7981 12.8C22.7981 13.0653 22.6928 13.3196 22.5052 13.5072C22.3177 13.6947 22.0634 13.8 21.7981 13.8ZM12.7981 11.8H11.7981V10.8C11.7981 10.5348 11.6928 10.2805 11.5052 10.0929C11.3177 9.90541 11.0634 9.80005 10.7981 9.80005C10.5329 9.80005 10.2786 9.90541 10.091 10.0929C9.9035 10.2805 9.79814 10.5348 9.79814 10.8V11.8H8.79814C8.53292 11.8 8.27857 11.9054 8.09103 12.0929C7.9035 12.2805 7.79814 12.5348 7.79814 12.8C7.79814 13.0653 7.9035 13.3196 8.09103 13.5072C8.27857 13.6947 8.53292 13.8 8.79814 13.8H9.79814V14.8C9.79814 15.0653 9.9035 15.3196 10.091 15.5072C10.2786 15.6947 10.5329 15.8 10.7981 15.8C11.0634 15.8 11.3177 15.6947 11.5052 15.5072C11.6928 15.3196 11.7981 15.0653 11.7981 14.8V13.8H12.7981C13.0634 13.8 13.3177 13.6947 13.5052 13.5072C13.6928 13.3196 13.7981 13.0653 13.7981 12.8C13.7981 12.5348 13.6928 12.2805 13.5052 12.0929C13.3177 11.9054 13.0634 11.8 12.7981 11.8ZM29.9831 24.8813C29.6063 25.4195 29.1161 25.8686 28.5471 26.1971C27.9781 26.5256 27.3441 26.7256 26.6896 26.7829C26.035 26.8402 25.3759 26.7535 24.7585 26.5288C24.1411 26.3042 23.5803 25.9471 23.1156 25.4825C23.1006 25.4676 23.0856 25.4525 23.0719 25.4363L18.1081 19.8H13.4831L8.52439 25.4363L8.48064 25.4825C7.63589 26.3255 6.4915 26.7992 5.29814 26.8C4.64119 26.7998 3.99226 26.6557 3.39693 26.3779C2.8016 26.1001 2.27432 25.6953 1.85212 25.192C1.42993 24.6887 1.12305 24.099 0.953064 23.4645C0.783073 22.8299 0.754086 22.1658 0.868141 21.5188C0.867539 21.513 0.867539 21.5071 0.868141 21.5013L2.91439 10.99C3.21893 9.25638 4.12471 7.68551 5.47259 6.55344C6.82046 5.42137 8.52418 4.80055 10.2844 4.80005H21.2981C23.053 4.80285 24.7515 5.42012 26.0987 6.5447C27.446 7.66928 28.3568 9.23015 28.6731 10.9563C28.6731 10.9638 28.6731 10.9713 28.6731 10.9788L30.7194 21.5C30.72 21.5059 30.72 21.5117 30.7194 21.5175C30.8253 22.0991 30.8147 22.6958 30.6884 23.2732C30.562 23.8506 30.3223 24.3972 29.9831 24.8813ZM21.2981 17.8C22.7568 17.8 24.1558 17.2206 25.1872 16.1891C26.2187 15.1577 26.7981 13.7587 26.7981 12.3C26.7981 10.8414 26.2187 9.44241 25.1872 8.41096C24.1558 7.37951 22.7568 6.80005 21.2981 6.80005H10.2844C8.99308 6.80121 7.74354 7.25772 6.75561 8.08926C5.76767 8.92081 5.10463 10.0741 4.88314 11.3463V11.3625L2.83564 21.8738C2.74514 22.3949 2.82224 22.9313 3.05586 23.4058C3.28948 23.8803 3.66759 24.2685 4.13578 24.5146C4.60398 24.7606 5.13816 24.8519 5.66147 24.7751C6.18479 24.6984 6.67029 24.4577 7.04814 24.0875L12.2881 18.1388C12.382 18.0324 12.4974 17.9471 12.6267 17.8887C12.756 17.8303 12.8963 17.8001 13.0381 17.8H21.2981ZM28.7606 21.8738L27.6681 16.2488C26.9962 17.3338 26.0585 18.2294 24.9439 18.8508C23.8292 19.4723 22.5743 19.799 21.2981 19.8H20.7731L24.5481 24.0888C24.8328 24.3656 25.179 24.5711 25.5584 24.6882C25.9377 24.8053 26.3395 24.8308 26.7306 24.7625C27.3822 24.6475 27.9617 24.2789 28.342 23.7374C28.7222 23.1959 28.8724 22.5258 28.7594 21.8738H28.7606Z" fill="white"/>
</svg>
