<svg width="321" height="129" viewBox="0 0 321 129" fill="none" xmlns="http://www.w3.org/2000/svg">
<path d="M66.6552 2.70475C70.7124 1.81457 74.9092 1.76717 78.9855 2.56551C87.7743 4.30845 93.1468 9.52324 95.0751 11.446C96.4674 12.8348 104.691 21.2951 104.992 34.1046C105.142 40.4619 103.239 45.2905 102.16 48.2084C100.388 53.009 97.9394 57.6674 94.2427 61.2089C85.557 69.5294 80.4514 67.2751 73.7476 75.7754C70.4806 79.9184 68.7362 84.4836 67.2266 88.4342C65.7038 92.421 64.5765 96.5477 63.861 100.755C62.6384 100.508 61.3232 100.185 59.9379 99.7628C59.0103 99.4798 58.1348 99.1783 57.3185 98.8683L32.8657 89.2836C34.1529 86.3787 35.8518 82.4461 37.7585 77.7237C39.9622 72.2645 40.3674 70.8942 40.6634 69.5249C41.3821 66.2063 41.4257 63.0765 40.5482 56.3276C39.0712 44.9679 37.6974 44.2147 37.5732 39.1036C37.4039 32.1719 39.82 26.3196 41.8844 22.3704C46.9525 12.6756 54.8768 7.57445 58.7248 5.45037" stroke="#58CBFB" stroke-width="3.79071" stroke-miterlimit="10" stroke-linecap="round"/>
<path d="M71.6395 77.5488C61.4223 73.5471 51.1133 69.7936 40.7124 66.2883" stroke="#58CBFB" stroke-width="3.79071" stroke-miterlimit="10" stroke-linecap="round"/>
<path d="M67.229 88.4342C57.6709 84.728 48.1844 80.8456 38.7695 76.7871" stroke="#58CBFB" stroke-width="3.79071" stroke-miterlimit="10" stroke-linecap="round"/>
<path d="M57.2966 99.3937C56.5044 101.609 55.3405 103.673 53.8548 105.497C49.4894 110.839 43.6421 112.421 41.4063 112.901C39.099 109.11 37.8917 104.751 37.9194 100.313C37.9561 97.685 38.437 95.082 39.3418 92.6143" stroke="#58CBFB" stroke-width="3.79071" stroke-miterlimit="10" stroke-linecap="round"/>
<path d="M64.0615 73.9162C67.6589 64.3477 71.5713 54.9056 75.7988 45.5899C77.746 41.2997 80.2187 36.6173 84.7027 35.1724C85.9739 34.7627 87.528 34.7151 88.4821 35.6502C89.8529 36.9935 88.9775 39.5378 87.2946 40.4583C85.6118 41.3789 83.5523 41.151 81.6631 40.8139C76.3904 39.8736 71.2475 38.313 66.3413 36.1646C63.6087 34.9676 60.8771 33.5286 58.9754 31.2302C57.7398 29.7372 57.0932 27.1424 58.74 26.1217C59.9506 25.3704 61.6489 26.1632 62.329 27.4153C63.0092 28.6675 62.9301 30.184 62.7407 31.5959C62.1668 35.847 60.7494 39.9319 59.34 43.9832L50.6123 69.0715" stroke="#58CBFB" stroke-width="3.79071" stroke-miterlimit="10" stroke-linecap="round"/>
<path d="M72.6917 77.9932L84.6213 89.9253C84.9842 90.2258 85.2533 90.6242 85.3966 91.0732C85.4743 91.529 85.3971 91.9977 85.1772 92.4045C84.7765 93.2344 83.6917 99.8249 81.2421 118.565L63.8628 100.755" stroke="#58CBFB" stroke-width="3.79071" stroke-miterlimit="10" stroke-linecap="round"/>
<path d="M40.5504 66.1337L23.679 66.3705C23.2092 66.333 22.7385 66.4308 22.3227 66.6525C21.9494 66.9252 21.678 67.3151 21.5519 67.7599C21.2599 68.6389 17.1284 74.2659 5 89.6628C13.6696 89.3122 24.1953 88.9331 32.8654 88.581" stroke="#58CBFB" stroke-width="3.79071" stroke-miterlimit="10" stroke-linecap="round"/>
<path d="M68.0945 110.975L63.6265 122.002" stroke="#58CBFB" stroke-width="3.79071" stroke-miterlimit="10" stroke-linecap="round"/>
<path d="M60.7332 114.584L55.6611 127.102" stroke="#58CBFB" stroke-width="3.79071" stroke-miterlimit="10" stroke-linecap="round"/>
<path d="M29.1241 95.8798C27.4048 99.9309 25.5941 103.942 23.6919 107.913" stroke="#58CBFB" stroke-width="3.79071" stroke-miterlimit="10" stroke-linecap="round"/>
<path d="M20.401 99.6306L14.457 113.53" stroke="#58CBFB" stroke-width="3.79071" stroke-miterlimit="10" stroke-linecap="round"/>
<path d="M176.203 66.2078C176.009 66.5724 175.723 66.8797 175.373 67.0993C175.023 67.3189 174.622 67.4431 174.21 67.4596C172.819 67.4804 170.556 65.7155 170.161 65.4053C169.766 65.0952 166.363 61.5236 163.747 60.4444C162.339 59.8438 160.812 59.5726 159.283 59.6517C157.754 59.7308 156.264 60.1579 154.925 60.9005C154.925 60.9005 148.829 63.9603 145.231 74.7529C141.633 85.5455 141.577 94.2922 145.452 97.448C149.327 100.604 153.867 98.167 156.911 96.8917C159.956 95.6163 165.047 92.5802 166.763 92.4077C168.48 92.2353 169.587 92.6859 168.978 95.6733C167.371 101.243 165.317 106.674 162.833 111.912C160.169 113.911 157.177 115.429 153.99 116.396C149.466 117.716 144.683 117.873 140.082 116.852C135.931 115.98 131.226 113.185 126.963 108.591C122.7 103.997 120.148 94.5662 121.261 83.3856C122.373 72.205 128.954 59.7504 136.483 52.1663C144.011 44.5823 150.764 42.0371 157.406 41.7604C161.25 41.7752 165.039 42.6696 168.483 44.3749C171.927 46.0803 174.936 48.5514 177.278 51.5989C177.488 51.9164 177.642 52.2672 177.734 52.6364C177.734 52.6364 178.196 63.6474 176.203 66.2078Z" fill="#58CBFB"/>
<path d="M210.037 43.8145L191.4 117.454H179.817C179.817 117.454 174.461 117.662 173.002 115.752C171.543 113.843 171.84 112.099 172.712 107.947C173.584 103.795 185.871 54.8991 185.871 54.8991C185.871 54.8991 187.574 48.0842 189.193 46.3471C190.812 44.61 192.846 43.8145 196.54 43.8145H210.037Z" fill="#58CBFB"/>
<path d="M206.676 11.0059C206.676 11.0059 212.613 10.7569 215.686 14.0364C216.813 15.214 217.502 16.7428 217.638 18.3674C217.774 19.992 217.349 21.6141 216.433 22.9626C215.228 24.7887 212.032 29.854 202.152 29.854C192.272 29.854 192.146 23.4563 192.146 22.3812C192.261 20.0185 193.253 17.7834 194.928 16.1129C196.392 14.4526 198.204 13.1345 200.234 12.252C202.264 11.3694 204.463 10.944 206.676 11.0059Z" fill="#58CBFB"/>
<path d="M224.153 43.816H214.729L210.744 59.8825H220.168L205.426 117.462H220.376C220.376 117.462 226.773 117.704 229.011 109.235C231.249 100.766 241.466 59.9229 241.466 59.9229H249.934C251.09 59.9489 252.238 59.722 253.297 59.2581C253.987 58.8931 254.578 58.3661 255.019 57.7225C255.46 57.0788 255.738 56.3377 255.83 55.5627C256.535 52.7811 257.947 47.3431 257.947 47.3431C258.072 46.9254 258.092 46.4832 258.005 46.0559C257.919 45.6285 257.727 45.2293 257.449 44.8939C256.568 44.1542 255.442 43.7695 254.293 43.8146H245.948L252.763 17.7024C253.177 16.3576 253.074 14.9065 252.472 13.6343C251.429 11.9319 249.56 11.142 246.364 11.142C243.169 11.3591 240.036 12.132 237.107 13.4257C234.801 14.3146 232.748 15.7542 231.126 17.6189L224.153 43.816Z" fill="#58CBFB"/>
<path d="M239.222 96.0974V108.738C240.21 108.683 241.161 108.345 241.962 107.765C243.844 106.686 254.112 98.3894 255.579 97.6982C257.047 97.007 260.672 94.9861 263.771 98.2545C266.87 101.523 270.03 106.246 271.742 108.156C273.454 110.065 273.707 110.203 274.731 111.366C276.801 113.676 279.488 115.348 282.476 116.183C289.593 118.025 297.091 117.765 304.064 115.436C313.751 112.364 316.463 110.953 319.175 107.3C321.887 103.648 320.919 97.1224 320.393 96.2379C320.083 95.7269 319.868 95.1645 319.756 94.5773C318.724 94.6561 317.717 94.9398 316.795 95.4117C315.3 96.1864 313.225 97.128 311.425 98.0418C308.51 99.1671 305.524 100.101 302.487 100.837C300.809 101.07 299.104 101.005 297.449 100.644C296.237 100.077 295.189 99.2099 294.405 98.1252C293.181 96.2618 292.081 94.3202 291.111 92.313C290.03 90.1396 289.213 87.8448 288.676 85.4773C288.372 83.2041 287.465 81.0539 286.048 79.2506C283.545 77.6791 280.834 76.4678 277.993 75.6526C275.732 74.8259 273.252 74.8259 270.991 75.6526C270.156 76.0699 267.809 77.0087 266.479 77.7834C265.149 78.558 256.985 83.5955 252.253 86.7234C247.52 89.8513 243.119 92.8123 241.735 93.8916C240.792 94.4968 239.945 95.2403 239.222 96.0974Z" fill="#58CBFB"/>
<path d="M286.674 38.7515C286.674 38.7515 278.704 41.4914 274.51 44.7319C270.317 47.9725 270.026 48.1783 269.612 51.3327C269.197 54.487 270.277 58.2241 274.179 59.3033C277.924 60.1111 281.793 60.1537 285.555 59.4285C289.512 58.5564 293.271 56.9527 296.639 54.6998C298.362 53.1077 299.77 51.2065 300.791 49.0949C301.165 48.5553 301.6 46.8946 302.451 45.1714C303.475 43.5925 304.109 41.7922 304.298 39.9198C304.277 38.0102 303.881 35.81 299.172 35.8308C294.868 36.0721 290.639 37.0604 286.674 38.7515Z" fill="#58CBFB"/>
</svg>
