<svg width="32" height="32" viewBox="0 0 32 32" fill="none" xmlns="http://www.w3.org/2000/svg">
<path d="M21.7002 15.2C21.7002 16.2877 21.3776 17.3511 20.7733 18.2556C20.1689 19.1601 19.31 19.865 18.305 20.2813C17.3 20.6976 16.1941 20.8065 15.1272 20.5943C14.0603 20.3821 13.0803 19.8582 12.3111 19.089C11.5419 18.3198 11.0181 17.3398 10.8059 16.2729C10.5937 15.2061 10.7026 14.1002 11.1189 13.0952C11.5351 12.0902 12.2401 11.2312 13.1446 10.6269C14.049 10.0225 15.1124 9.69995 16.2002 9.69995C17.6584 9.70161 19.0564 10.2816 20.0875 11.3127C21.1186 12.3438 21.6985 13.7418 21.7002 15.2ZM29.2002 16.2C29.2002 18.7711 28.4378 21.2845 27.0093 23.4224C25.5808 25.5602 23.5505 27.2264 21.1751 28.2104C18.7996 29.1943 16.1858 29.4518 13.664 28.9502C11.1423 28.4486 8.8259 27.2104 7.00781 25.3923C5.18973 23.5743 3.9516 21.2579 3.44999 18.7361C2.94838 16.2144 3.20583 13.6005 4.18977 11.2251C5.17371 8.84963 6.83995 6.8193 8.97779 5.39085C11.1156 3.96239 13.629 3.19995 16.2002 3.19995C19.6469 3.20359 22.9514 4.5744 25.3886 7.01158C27.8258 9.44877 29.1966 12.7533 29.2002 16.2ZM27.2002 16.2C27.1986 14.7194 26.8984 13.2543 26.3176 11.8924C25.7368 10.5305 24.8873 9.29969 23.82 8.27362C22.7526 7.24755 21.4892 6.44727 20.1055 5.92065C18.7217 5.39403 17.2459 5.15189 15.7665 5.2087C9.87895 5.4362 5.18395 10.34 5.2002 16.2312C5.20585 18.9131 6.19498 21.4998 7.9802 23.5012C8.70723 22.4467 9.63075 21.5423 10.7002 20.8375C10.7914 20.7772 10.8998 20.7485 11.0088 20.7558C11.1178 20.763 11.2215 20.8057 11.304 20.8775C12.6629 22.0529 14.3997 22.6998 16.1965 22.6998C17.9932 22.6998 19.73 22.0529 21.089 20.8775C21.1714 20.8057 21.2751 20.763 21.3841 20.7558C21.4931 20.7485 21.6015 20.7772 21.6927 20.8375C22.7635 21.5419 23.6883 22.4464 24.4165 23.5012C26.2105 21.4925 27.2015 18.8932 27.2002 16.2Z" fill="white"/>
</svg>
