<svg width="20" height="20" viewBox="0 0 20 20" fill="none" xmlns="http://www.w3.org/2000/svg">
<path d="M9.99984 17.4999L8.7915 16.4166C7.38873 15.1527 6.229 14.0624 5.31234 13.1458C4.39567 12.2291 3.6665 11.4062 3.12484 10.677C2.58317 9.94784 2.2047 9.2777 1.98942 8.66659C1.77414 8.05547 1.6665 7.43047 1.6665 6.79159C1.6665 5.48603 2.104 4.39575 2.979 3.52075C3.854 2.64575 4.94428 2.20825 6.24984 2.20825C6.97206 2.20825 7.65956 2.36103 8.31234 2.66659C8.96511 2.97214 9.52761 3.4027 9.99984 3.95825C10.4721 3.4027 11.0346 2.97214 11.6873 2.66659C12.3401 2.36103 13.0276 2.20825 13.7498 2.20825C15.0554 2.20825 16.1457 2.64575 17.0207 3.52075C17.8957 4.39575 18.3332 5.48603 18.3332 6.79159C18.3332 7.43047 18.2255 8.05547 18.0103 8.66659C17.795 9.2777 17.4165 9.94784 16.8748 10.677C16.3332 11.4062 15.604 12.2291 14.6873 13.1458C13.7707 14.0624 12.6109 15.1527 11.2082 16.4166L9.99984 17.4999Z" fill="#F5F5F5"/>
</svg>
